<?xml version="1.0" encoding="UTF-8" standalone="no"?>
<!-- Generator: Adobe Illustrator 18.0.0, SVG Export Plug-In . SVG Version: 6.00 Build 0)  -->

<svg
   version="1.1"
   id="Capa_1"
   x="0px"
   y="0px"
   viewBox="0 0 60 60"
   style="enable-background:new 0 0 60 60;"
   xml:space="preserve"
   sodipodi:docname="cr4gg_logo.svg"
   inkscape:version="1.1.1 (3bf5ae0, 2021-09-20)"
   xmlns:inkscape="http://www.inkscape.org/namespaces/inkscape"
   xmlns:sodipodi="http://sodipodi.sourceforge.net/DTD/sodipodi-0.dtd"
   xmlns="http://www.w3.org/2000/svg"
   xmlns:svg="http://www.w3.org/2000/svg"><sodipodi:namedview
   id="namedview47"
   pagecolor="#ffffff"
   bordercolor="#666666"
   borderopacity="1.0"
   inkscape:pageshadow="2"
   inkscape:pageopacity="0.0"
   inkscape:pagecheckerboard="0"
   showgrid="false"
   inkscape:zoom="10.601892"
   inkscape:cx="25.891604"
   inkscape:cy="32.965813"
   inkscape:window-width="1914"
   inkscape:window-height="1025"
   inkscape:window-x="0"
   inkscape:window-y="52"
   inkscape:window-maximized="1"
   inkscape:current-layer="Capa_1" /><defs
   id="defs1188">
	
	
	
	
	
	
	
	
</defs>
<path
   id="rect1015"
   style="fill:#f9f9f9;stroke-width:0.6"
   d="M 33.792969 3.9238281 C 33.904958 4.9957275 33.925622 5.9754776 32.566406 5.5761719 C 31.05131 4.9642936 32.189846 7.0073323 30.845703 6.5664062 C 29.26339 5.932952 30.67403 8.2915767 29.371094 7.9375 C 28.178748 7.6671664 28.702679 9.112698 27.279297 8.6113281 L 15.048828 8.6113281 C 15.172596 9.0035188 15.158734 9.2574987 15.066406 9.4335938 A 3.6195776 6.6020799 25.91143 0 0 14.847656 9.3066406 A 3.6195776 6.6020799 25.91143 0 0 9.546875 12.208984 C 9.0446378 12.260783 8.9115345 12.679764 8.9277344 13.25 A 3.6195776 6.6020799 25.91143 0 0 8.7070312 13.664062 A 3.6195776 6.6020799 25.91143 0 0 7.7050781 19.050781 L 7.7050781 26.535156 C -0.69039636 27.017827 -0.19662736 41.066057 8.2714844 40.835938 C 9.6139065 40.511159 8.2946019 43.024861 10.195312 42.228516 L 13.058594 42.228516 C 12.394263 44.461118 14.909236 43.11649 14.808594 45.660156 C 16.021696 46.619996 16.766455 48.186144 17.853516 48.958984 C 17.476294 50.277389 18.430938 50.264598 18.390625 51.246094 C 18.047241 55.409488 24.872422 54.770475 27.535156 55.101562 C 30.960369 55.402459 35.283692 54.293342 37.207031 52.1875 C 38.507038 52.531572 38.739131 51.806395 38.541016 50.652344 C 39.048144 50.231824 40.346404 50.604127 41.148438 50.478516 C 41.881399 49.523988 44.196308 47.895775 46.138672 49.582031 C 49.919436 49.694394 52.211384 46.470182 55.539062 45.484375 C 56.053086 44.111098 55.603616 43.455454 57.298828 43.742188 C 57.869807 43.360777 57.388335 41.928611 57.546875 41.134766 L 57.546875 35.849609 C 56.372189 35.796949 58.123546 32.720295 56.109375 32.324219 C 57.814515 28.064947 60.865173 21.959831 55.794922 18.515625 C 54.904542 14.89735 50.266735 14.080389 47.841797 13.490234 C 48.347447 12.035894 46.786226 12.648794 47.119141 11.367188 C 47.40974 10.17236 46.764446 9.913219 46.646484 9.1269531 C 47.314935 7.5734455 45.224089 8.7781555 45.373047 7.7441406 C 45.693339 6.5380716 43.330543 8.0161705 43.816406 6.6445312 C 44.258251 5.2330108 42.924875 5.5955814 41.974609 5.5761719 C 40.47892 6.1161831 41.133372 4.5058995 40.759766 3.9238281 L 33.792969 3.9238281 z " /><circle
   style="display:inline;fill:#ffcc00;fill-opacity:1;stroke:none;stroke-width:0.565853;stroke-miterlimit:4;stroke-dasharray:none;stroke-opacity:1"
   id="path1990"
   cx="37.625164"
   cy="30.187559"
   r="13.034833" /><path
   d="M 58.109,31.175 C 59.347,29.401 60,27.351 60,25.247 60,20.625 56.843,16.339 51.957,14.329 50.154,13.587 48.765,12.153 48.241,10.494 46.907,6.264 43.873,3.859 38.965,3.141 34.882,2.544 31.048,3.866 28.96,6.592 28.135,7.67 26.248,8.103 24.381,7.647 22.903,7.287 21.365,7.096 19.809,7.083 c -0.056,0 -0.11,-0.001 -0.166,-0.001 -6.904,0 -12.605,3.692 -13.588,8.822 -0.342,1.784 -0.132,3.566 0.626,5.297 0.896,2.051 0.082,4.262 -2.181,5.914 -2.901,2.119 -4.5,4.924 -4.5,7.898 0,3.946 5.721,6.755 10.52,8.416 2.957,1.022 4.901,2.995 5.333,5.395 l 0.025,0.139 C 16.797,53.686 21.767,57 27.812,57 c 0.203,0 0.407,-0.004 0.613,-0.012 4.588,-0.168 8.983,-2.109 11.76,-5.192 0.855,-0.949 2.233,-1.478 3.438,-1.302 2.088,0.298 4.216,0.139 6.33,-0.481 4.896,-1.433 8.63,-5.349 9.294,-9.745 0.34,-2.252 -0.087,-4.458 -1.235,-6.379 -0.511,-0.856 -0.474,-1.896 0.097,-2.714 z m -0.84,8.794 c -0.549,3.642 -3.715,6.906 -7.878,8.124 -1.835,0.538 -3.683,0.681 -5.482,0.421 h -10e-4 c -1.858,-0.267 -3.904,0.497 -5.208,1.944 -2.421,2.688 -6.289,4.383 -10.348,4.532 -5.297,0.207 -9.749,-2.5 -10.527,-6.504 -0.566,-3.149 -2.99,-5.682 -6.65,-6.948 C 5.43,39.551 2,37.111 2,35.013 2,32.695 3.307,30.463 5.68,28.731 8.708,26.519 9.793,23.327 8.513,20.4 7.92,19.047 7.754,17.662 8.02,16.282 8.821,12.094 13.696,9.083 19.64,9.083 c 0.051,0 0.101,10e-4 0.151,10e-4 1.402,0.013 2.787,0.184 4.116,0.508 2.656,0.648 5.326,-0.068 6.641,-1.781 1.646,-2.15 4.756,-3.178 8.128,-2.689 4.13,0.604 6.563,2.503 7.657,5.976 0.7,2.219 2.519,4.118 4.863,5.083 4.133,1.7 6.804,5.26 6.804,9.068 0,1.693 -0.529,3.347 -1.531,4.783 -1.027,1.474 -1.094,3.345 -0.174,4.884 0.907,1.516 1.244,3.264 0.974,5.053 z"
   id="path1137" /><path
   d="M 37.5,17 C 30.056,17 24,23.055 24,30.5 24,37.945 30.056,44 37.5,44 44.944,44 51,37.944 51,30.5 51,23.056 44.944,17 37.5,17 Z m 0,25 C 31.159,42 26,36.841 26,30.5 26,24.159 31.159,19 37.5,19 43.841,19 49,24.159 49,30.5 49,36.841 43.841,42 37.5,42 Z"
   id="path1139"
   style="fill-opacity:1;fill:#000000" /><path
   d="m 16.591,12.593 c -0.225,-0.504 -0.814,-0.73 -1.32,-0.508 -2.109,0.939 -3.828,2.408 -5.107,4.368 -0.303,0.463 -0.172,1.082 0.29,1.384 0.168,0.11 0.358,0.163 0.545,0.163 0.326,0 0.646,-0.159 0.838,-0.453 1.065,-1.632 2.494,-2.854 4.246,-3.634 0.505,-0.225 0.731,-0.817 0.508,-1.32 z"
   id="path1145" /><path
   d="m 19.651,12.995 c 1.289,-0.123 2.189,-0.007 2.211,-0.005 0.047,0.007 0.093,0.01 0.139,0.01 0.49,0 0.919,-0.36 0.989,-0.86 0.077,-0.547 -0.304,-1.053 -0.851,-1.13 -0.046,-0.006 -1.131,-0.154 -2.682,-0.005 -0.55,0.053 -0.952,0.542 -0.898,1.092 0.053,0.549 0.536,0.95 1.092,0.898 z"
   id="path1147" /><path
   d="m 19.481,44.852 c 0.471,-0.288 0.619,-0.903 0.33,-1.375 -0.981,-1.604 -2.236,-2.383 -2.29,-2.415 -0.469,-0.292 -1.086,-0.14 -1.374,0.331 -0.289,0.471 -0.141,1.086 0.331,1.374 0.009,0.006 0.906,0.576 1.628,1.755 0.189,0.308 0.517,0.478 0.854,0.478 0.178,0 0.358,-0.048 0.521,-0.148 z"
   id="path1151" />
<g
   id="g1155">
</g>
<g
   id="g1157">
</g>
<g
   id="g1159">
</g><path
   d="m 25.876,49.923 -0.149,0.017 c -2.33,0.255 -4.455,-1.334 -4.851,-3.625 -0.094,-0.545 -0.612,-0.905 -1.155,-0.815 -0.545,0.094 -0.909,0.611 -0.815,1.155 0.534,3.094 3.239,5.312 6.334,5.312 0.238,0 0.479,-0.013 0.722,-0.04 l 0.163,-0.019 c 0.548,-0.068 0.937,-0.568 0.868,-1.116 -0.069,-0.548 -0.563,-0.938 -1.117,-0.869 z"
   id="path1149" />
<g
   id="g1161">
</g>
<g
   id="g1163">
</g>
<g
   id="g1165">
</g>
<g
   id="g1167">
</g>
<g
   id="g1169">
</g>
<g
   id="g1171">
</g>
<g
   id="g1173">
</g>
<g
   id="g1175">
</g>
<g
   id="g1177">
</g>
<g
   id="g1179">
</g>
<g
   id="g1181">
</g>
<g
   id="g1183">
</g>
<g
   id="g1530"
   transform="matrix(0.21855384,0,0,0.21855384,31.624905,24.187163)"
   style="stroke:#000000;stroke-width:2.32151;stroke-miterlimit:4;stroke-dasharray:none;stroke-opacity:1"><g
     id="g1473"
     style="stroke:#000000;stroke-width:2.32151;stroke-miterlimit:4;stroke-dasharray:none;stroke-opacity:1">
	<path
   d="M 54.615,19.123 C 47.372,11.879 37.725,7.89 27.454,7.89 17.183,7.89 7.537,11.878 0.293,19.123 c -0.391,0.391 -0.391,1.023 0,1.414 0.391,0.391 1.023,0.391 1.414,0 6.866,-6.867 16.01,-10.648 25.747,-10.648 9.737,0 18.881,3.781 25.747,10.647 0.195,0.195 0.451,0.293 0.707,0.293 0.256,0 0.512,-0.098 0.707,-0.293 0.391,-0.39 0.391,-1.023 0,-1.413 z"
   id="path1465"
   style="stroke:#000000;stroke-width:2.32151;stroke-miterlimit:4;stroke-dasharray:none;stroke-opacity:1" />
	<path
   d="m 6.171,25 c -0.391,0.391 -0.391,1.023 0,1.414 0.195,0.195 0.451,0.293 0.707,0.293 0.256,0 0.512,-0.098 0.707,-0.293 10.955,-10.956 28.781,-10.956 39.737,0 0.391,0.391 1.023,0.391 1.414,0 0.391,-0.391 0.391,-1.023 0,-1.414 C 37.002,13.266 17.907,13.264 6.171,25 Z"
   id="path1467"
   style="stroke:#000000;stroke-width:2.32151;stroke-miterlimit:4;stroke-dasharray:none;stroke-opacity:1" />
	<path
   d="m 27.454,24.508 c -5.825,0 -11.295,2.263 -15.404,6.371 -0.391,0.391 -0.391,1.023 0,1.414 0.391,0.391 1.023,0.391 1.414,0 3.731,-3.73 8.699,-5.785 13.99,-5.785 5.291,0 10.259,2.055 13.99,5.785 0.195,0.195 0.451,0.293 0.707,0.293 0.256,0 0.512,-0.098 0.707,-0.293 0.391,-0.391 0.391,-1.023 0,-1.414 -4.108,-4.108 -9.579,-6.371 -15.404,-6.371 z"
   id="path1469"
   style="stroke:#000000;stroke-width:2.32151;stroke-miterlimit:4;stroke-dasharray:none;stroke-opacity:1" />
	<path
   d="m 27.454,33.916 c -3.612,0 -6.551,2.939 -6.551,6.552 0,3.613 2.939,6.552 6.551,6.552 3.613,0 6.552,-2.939 6.552,-6.552 0,-3.613 -2.939,-6.552 -6.552,-6.552 z m 0,11.103 c -2.51,0 -4.551,-2.042 -4.551,-4.552 0,-2.51 2.042,-4.552 4.551,-4.552 2.509,0 4.552,2.042 4.552,4.552 0,2.51 -2.042,4.552 -4.552,4.552 z"
   id="path1471"
   style="stroke:#000000;stroke-width:2.32151;stroke-miterlimit:4;stroke-dasharray:none;stroke-opacity:1" />
</g><g
     id="g1475"
     style="stroke:#000000;stroke-width:2.32151;stroke-miterlimit:4;stroke-dasharray:none;stroke-opacity:1">
</g><g
     id="g1477"
     style="stroke:#000000;stroke-width:2.32151;stroke-miterlimit:4;stroke-dasharray:none;stroke-opacity:1">
</g><g
     id="g1479"
     style="stroke:#000000;stroke-width:2.32151;stroke-miterlimit:4;stroke-dasharray:none;stroke-opacity:1">
</g><g
     id="g1481"
     style="stroke:#000000;stroke-width:2.32151;stroke-miterlimit:4;stroke-dasharray:none;stroke-opacity:1">
</g><g
     id="g1483"
     style="stroke:#000000;stroke-width:2.32151;stroke-miterlimit:4;stroke-dasharray:none;stroke-opacity:1">
</g><g
     id="g1485"
     style="stroke:#000000;stroke-width:2.32151;stroke-miterlimit:4;stroke-dasharray:none;stroke-opacity:1">
</g><g
     id="g1487"
     style="stroke:#000000;stroke-width:2.32151;stroke-miterlimit:4;stroke-dasharray:none;stroke-opacity:1">
</g><g
     id="g1489"
     style="stroke:#000000;stroke-width:2.32151;stroke-miterlimit:4;stroke-dasharray:none;stroke-opacity:1">
</g><g
     id="g1491"
     style="stroke:#000000;stroke-width:2.32151;stroke-miterlimit:4;stroke-dasharray:none;stroke-opacity:1">
</g><g
     id="g1493"
     style="stroke:#000000;stroke-width:2.32151;stroke-miterlimit:4;stroke-dasharray:none;stroke-opacity:1">
</g><g
     id="g1495"
     style="stroke:#000000;stroke-width:2.32151;stroke-miterlimit:4;stroke-dasharray:none;stroke-opacity:1">
</g><g
     id="g1497"
     style="stroke:#000000;stroke-width:2.32151;stroke-miterlimit:4;stroke-dasharray:none;stroke-opacity:1">
</g><g
     id="g1499"
     style="stroke:#000000;stroke-width:2.32151;stroke-miterlimit:4;stroke-dasharray:none;stroke-opacity:1">
</g><g
     id="g1501"
     style="stroke:#000000;stroke-width:2.32151;stroke-miterlimit:4;stroke-dasharray:none;stroke-opacity:1">
</g><g
     id="g1503"
     style="stroke:#000000;stroke-width:2.32151;stroke-miterlimit:4;stroke-dasharray:none;stroke-opacity:1">
</g></g><g
   id="g1829" /></svg>
